HIERARCHY
ROOT Root
{
  OFFSET 7.16766 12.0689 36.4227
  CHANNELS 6 Xposition Yposition Zposition Zrotation Xrotation Yrotation
  JOINT Spine
  {
    OFFSET 5.3114 0 0
    CHANNELS 3 Zrotation Xrotation Yrotation
    JOINT Spine1
    {
      OFFSET 2.79004 0 0
      CHANNELS 3 Zrotation Xrotation Yrotation
      JOINT Neck
      {
        OFFSET 1.43377 0 0
        CHANNELS 3 Zrotation Xrotation Yrotation
        JOINT Head
        {
          OFFSET 1.86043 0 0
          CHANNELS 3 Zrotation Xrotation Yrotation
          End Site
          {
            OFFSET 0 0 0
          }
        }
      }
      JOINT LeftArm
      {
        OFFSET 0.0387506 0 2.55754
        CHANNELS 3 Zrotation Xrotation Yrotation
        JOINT LeftForeArm
        {
          OFFSET 4.24845 0 0
          CHANNELS 3 Zrotation Xrotation Yrotation
          JOINT LeftHand
          {
            OFFSET 4.01008 0 0
            CHANNELS 3 Zrotation Xrotation Yrotation
            End Site
            {
              OFFSET 0 0 0
            }
          }
        }
      }
      JOINT RightArm
      {
        OFFSET 0.0387506 0 -2.55754
        CHANNELS 3 Zrotation Xrotation Yrotation
        JOINT RightForeArm
        {
          OFFSET -4.24845 0 0
          CHANNELS 3 Zrotation Xrotation Yrotation
          JOINT RightHand
          {
            OFFSET -4.01009 0 0
            CHANNELS 3 Zrotation Xrotation Yrotation
            End Site
            {
              OFFSET 0 0 0
            }
          }
        }
      }
    }
  }
  JOINT LeftUpLeg
  {
    OFFSET -1.23318 0 2.05692
    CHANNELS 3 Zrotation Xrotation Yrotation
    JOINT LeftLeg
    {
      OFFSET 5.46397 0 0
      CHANNELS 3 Zrotation Xrotation Yrotation
      JOINT LeftFoot
      {
        OFFSET 4.68898 0 0
        CHANNELS 3 Zrotation Xrotation Yrotation
        End Site
        {
          OFFSET 0 0 0
        }
      }
    }
  }
  JOINT RightUpLeg
  {
    OFFSET -1.24454 0 -2.05007
    CHANNELS 3 Zrotation Xrotation Yrotation
    JOINT RightLeg
    {
      OFFSET -5.46397 0 0
      CHANNELS 3 Zrotation Xrotation Yrotation
      JOINT RightFoot
      {
        OFFSET -4.68901 0 0
        CHANNELS 3 Zrotation Xrotation Yrotation
        End Site
        {
          OFFSET 0 0 0
        }
      }
    }
  }
}
MOTION
Frames:	26
Frame Time:	0.0416667
7.16766 12.0689 36.4227 -0 90 90 9.69808e-018 1.34041e-020 0.158382 1.41245e-030 7.06225e-031 2.48481e-017 -7.30747e-017 7.61111e-019 -1.19349 3.40995e-017 1.65719e-019 0.556895 -2.12238e-008 -1.53545e-005 -90.1584 -2.50273e-005 -2.47192e-012 6.55612e-006 1.52588e-005 -6.98387e-015 174.455 180 -4.60993e-005 -89.8417 -5.49628e-005 -2.25992e-011 3.612e-005 1.52588e-005 6.98394e-015 174.46 -0.02592 -0.00149226 -176.309 -0.0560778 0.00109522 -0.879848 0.0301289 -0.000457213 177.189 173.102 -0.407489 -176.233 -14.9641 0.277387 -0.849959 8.05685 -0.10713 176.775 
7.11521 12.1056 35.1076 -113.723 -88.256 156.366 4.48444 6.25475 1.66461 -8.31887 1.98751 -3.09679 -5.56621 17.5152 12.0652 18.8225 33.7783 -19.7954 10.0562 -44.3217 -175.145 32.9409 2.27832 19.0181 1.30927 14.6365 174.285 -165.122 -49.3528 -177.975 33.0866 2.31127 19.0994 0.7057 8.0145 174.406 -10.1946 -25.1219 171.796 -27.0002 -1.15483 -1.09515 24.8874 -17.4142 -174.84 172.647 -13.5934 174.02 -35.0133 -1.56716 -1.37883 38.1676 -26.3168 -167.526 
7.11491 12.104 35.1828 93.4492 -79.9456 3.34858 4.25037 5.98735 1.84515 -7.6333 1.89995 -2.9934 -4.89249 16.3581 11.1962 16.2464 31.7376 -17.9143 14.149 -41.029 -167.745 30.9026 2.16206 17.8108 1.18737 13.3073 174.316 -160.391 -45.3654 -169.956 30.9303 2.16837 17.8261 0.666271 7.57462 174.412 -9.09109 -23.1644 172.97 -25.6748 -1.0907 -1.09068 23.5113 -16.1013 -175.368 172.97 -12.8523 174.466 -33.3045 -1.4266 -1.32922 35.3536 -24.6813 -168.91 
7.11277 12.1038 35.1717 93.7668 -80.1345 3.48256 4.24208 6.07731 1.99713 -7.59702 1.92461 -3.00594 -4.76839 16.4878 11.047 15.7711 32.0738 -17.4917 14.347 -41.2057 -167.591 31.0859 2.2039 17.9123 1.18447 13.2592 174.316 -160.523 -45.1984 -170.084 30.8529 2.15072 17.7832 0.649049 7.39388 174.414 -9.09024 -23.1635 173.13 -25.924 -1.09715 -1.09604 23.7874 -16.0576 -175.312 172.966 -13.0245 174.243 -33.0758 -1.41281 -1.32117 35.0071 -24.8963 -168.971 
7.11224 12.1025 35.16 94.4622 -80.3028 4.37007 4.20514 6.06581 1.73759 -7.56291 1.92235 -3.00572 -4.86468 16.4722 11.0029 15.5453 32.1252 -17.1631 14.1354 -41.2291 -167.604 30.7864 2.13577 17.7465 1.21137 13.5088 174.31 -160.593 -45.1586 -170.095 30.9522 2.17341 17.8383 0.61571 7.04299 174.418 -9.011 -23.2807 172.888 -25.5404 -1.08801 -1.08787 23.5485 -16.717 -175.084 172.849 -12.9983 174.505 -33.3883 -1.43019 -1.32321 35.4278 -24.6742 -168.871 
7.10994 12.1006 35.1481 94.8053 -80.3384 4.60004 4.23284 5.96643 1.76308 -7.42248 1.87746 -2.79049 -4.81312 16.542 11.1166 15.3471 32.2572 -17.4971 14.0603 -41.4606 -167.602 30.9459 2.17188 17.8348 1.20152 13.4064 174.312 -160.54 -45.1901 -169.816 31.1483 2.21822 17.9468 0.607561 6.94442 174.419 -8.98419 -22.6141 173.152 -25.6786 -1.09468 -1.0922 23.6389 -16.0118 -175.362 172.875 -13.1443 174.354 -33.241 -1.42137 -1.32933 35.1902 -24.8571 -168.895 
7.09992 12.0967 35.1265 93.4464 -79.9481 3.331 4.38186 5.65431 1.65911 -7.46596 1.78109 -2.64172 -4.67506 16.5978 11.1838 15.5988 32.2695 -17.8898 14.1009 -41.7024 -167.655 30.9725 2.17798 17.8495 1.17363 13.1334 174.317 -160.452 -45.2623 -169.756 30.9867 2.18128 17.8574 0.585141 6.70093 174.422 -8.71534 -22.5034 173.132 -25.6306 -1.09389 -1.09337 23.4158 -15.7573 -175.54 173.345 -13.1567 174.374 -33.2184 -1.44511 -1.33155 36.0215 -24.7151 -168.512 
7.09479 12.095 35.1142 94.3755 -80.0199 4.23997 4.24578 5.76953 1.69069 -7.54586 1.81186 -2.59823 -4.62238 16.6172 11.2408 15.7611 32.2566 -18.1099 14.0999 -41.6791 -167.814 31.0178 2.18832 17.8746 1.18875 13.2853 174.313 -160.185 -45.2308 -169.615 31.0226 2.18945 17.8773 0.595622 6.79564 174.421 -8.7973 -22.4833 173.093 -25.6923 -1.0928 -1.09013 23.5064 -16.0203 -175.398 173.256 -13.1932 174.394 -33.2 -1.44971 -1.3294 36.1925 -24.6475 -168.448 
7.08828 12.0965 35.103 93.4489 -79.62 3.22827 4.37904 5.52089 1.77902 -7.50326 1.72934 -2.43663 -4.79332 16.5877 11.0986 15.9145 32.2359 -17.8333 13.864 -41.5383 -168.081 30.8697 2.15459 17.7926 1.2598 13.985 174.296 -160.054 -45.2087 -169.428 30.9565 2.1743 17.8407 0.592166 6.75615 174.422 -8.80559 -23.0478 173.057 -25.9395 -1.09593 -1.09446 23.618 -15.7569 -175.495 173.624 -13.2235 174.219 -32.9874 -1.45978 -1.31966 36.5531 -24.9996 -168.046 
7.0847 12.0941 35.0927 94.3577 -79.3861 4.10715 4.15832 5.49033 1.80039 -7.50646 1.71548 -2.37293 -4.58702 16.6429 11.2182 15.9496 32.2405 -18.428 13.8904 -41.4801 -168.199 30.9154 2.16494 17.8179 1.26897 14.0838 174.293 -159.858 -45.0548 -169.37 31.0763 2.20172 17.9069 0.615679 7.00389 174.419 -8.99121 -22.6435 173.157 -26.0833 -1.09849 -1.10015 23.5712 -15.5932 -175.583 173.662 -13.3991 174.161 -32.6574 -1.45617 -1.30649 36.6479 -25.2704 -167.849 
7.07757 12.0939 35.0817 94.0526 -78.8519 3.9656 4.21219 5.18673 1.6614 -7.29753 1.62286 -2.31048 -4.42797 16.7442 10.924 15.3391 32.5084 -18.1109 13.5064 -41.3118 -168.31 30.9917 2.18236 17.8602 1.22837 13.7 174.302 -160.048 -45.0498 -169.307 31.0305 2.19119 17.8816 0.657758 7.45806 174.413 -8.92997 -22.5053 173.072 -25.8465 -1.09331 -1.09398 23.3074 -15.2971 -175.777 173.871 -13.2711 174.282 -32.7814 -1.47415 -1.31192 37.0767 -25.4149 -167.539 
7.07442 12.0926 35.0702 94.3998 -78.6509 4.50628 4.04998 5.09186 1.3772 -7.08202 1.57667 -2.0208 -4.44053 16.8473 10.5055 15.111 32.7887 -17.4918 13.0902 -40.9685 -168.709 30.977 2.17893 17.8519 1.20139 13.4481 174.307 -159.786 -45.3338 -168.889 31.1559 2.21992 17.951 0.612324 7.01356 174.419 -8.87154 -22.5939 172.883 -25.5057 -1.09097 -1.08573 23.2198 -15.194 -175.829 173.883 -13.3641 174.46 -33.0082 -1.50023 -1.31947 37.7829 -25.2893 -167.217 
7.07009 12.0897 35.0661 95.7879 -78.8547 5.82766 3.90306 5.50281 1.53576 -7.09926 1.70572 -2.23944 -4.52573 16.7838 10.6615 15.2743 32.6405 -17.7493 13.1458 -41.1085 -168.482 31.0102 2.18659 17.8704 1.15624 13.0168 174.317 -160.2 -45.1621 -169.199 30.9261 2.16741 17.8239 0.604903 6.9515 174.419 -9.29867 -23.4113 172.609 -25.617 -1.08897 -1.08854 23.3628 -16.123 -175.395 173.474 -13.4062 174.484 -33.0819 -1.48677 -1.32507 37.311 -25.3958 -167.426 
7.06524 12.0892 35.0541 96.0791 -78.7996 5.87369 3.7205 5.66335 1.87115 -7.12421 1.74523 -2.18669 -4.53037 16.8208 10.5447 15.577 32.6515 -17.9107 13.1172 -40.9575 -168.719 30.9818 2.18005 17.8547 1.17349 13.1932 174.312 -159.767 -45.1275 -168.982 31.0496 2.19556 17.8923 0.63409 7.26364 174.416 -9.39294 -23.6809 172.74 -25.9565 -1.09918 -1.09665 23.8898 -15.9343 -175.33 173.624 -12.9373 174.414 -32.7145 -1.46895 -1.30998 36.9933 -25.0865 -167.747 
7.05345 12.0909 35.0462 95.0643 -77.8842 4.62855 3.696 5.16981 2.19896 -7.02836 1.60552 -2.28007 -4.5833 16.8558 10.5612 15.9109 32.6826 -17.9936 12.9885 -40.6995 -168.771 30.899 2.16132 17.8088 1.21055 13.559 174.303 -159.802 -45.2064 -169.031 31.0988 2.20686 17.9194 0.702783 7.98329 174.406 -9.47679 -23.5624 173.061 -26.5093 -1.10575 -1.10963 23.8358 -15.0662 -175.758 174.246 -13.0937 173.96 -32.0509 -1.47937 -1.28622 37.6393 -25.7026 -167.007 
7.05117 12.0895 35.0398 95.4586 -77.7892 5.22909 3.68146 5.30533 1.96245 -7.08055 1.64238 -2.20464 -4.60977 16.8737 10.3467 15.9706 32.6953 -18.0308 12.7612 -40.5481 -168.914 30.7414 2.12564 17.7215 1.22484 13.6991 174.299 -159.849 -45.2485 -168.959 31.1496 2.21847 17.9476 0.747382 8.48087 174.399 -9.5601 -23.359 172.875 -26.2208 -1.09898 -1.1025 23.4666 -14.9677 -175.895 174.098 -13.0177 174.207 -32.3409 -1.48229 -1.29694 37.4672 -25.8737 -167.038 
7.04102 12.0922 35.0306 94.1356 -77.4636 4.25414 3.86892 5.18873 1.67681 -7.16919 1.61097 -2.16247 -4.44039 16.8851 10.2983 16.0175 32.6511 -18.2101 12.692 -40.1385 -169.227 30.7706 2.1322 17.7377 1.26944 14.1326 174.288 -159.775 -45.1884 -168.919 30.7654 2.13099 17.7347 0.801258 9.05873 174.39 -9.25232 -23.5417 172.493 -25.7737 -1.09052 -1.09174 23.144 -14.9456 -175.975 174.448 -12.7503 174.607 -32.7265 -1.50947 -1.31231 38.0888 -25.6551 -166.818 
7.03332 12.09 35.027 94.9706 -77.5662 5.12284 3.5841 5.38878 1.72092 -7.01676 1.66101 -2.10649 -4.52923 16.9843 9.94576 15.962 32.8829 -17.9541 12.5496 -39.9112 -169.472 31.0135 2.18733 17.8723 1.23884 13.8357 174.295 -160.069 -45.0761 -168.823 30.1064 1.98418 17.3689 0.780183 8.84678 174.394 -9.33566 -23.3944 172.422 -25.5748 -1.09024 -1.08847 23.1746 -15.1083 -175.883 174.132 -12.9894 174.669 -33.0031 -1.52036 -1.32395 38.3117 -25.4762 -166.788 
7.02794 12.0875 35.0234 95.8497 -77.476 6.0235 3.30504 5.50277 1.69857 -6.83503 1.69303 -2.15506 -4.38811 16.9889 10.0047 15.6264 32.8742 -18.2832 12.2909 -39.8225 -169.508 30.8853 2.15814 17.8012 1.23094 13.7593 174.297 -160.145 -44.9859 -168.851 30.1183 1.987 17.3755 0.756095 8.56481 174.398 -9.49571 -23.3374 172.393 -25.4613 -1.09221 -1.08621 23.1161 -14.8279 -176.015 173.938 -12.7379 174.789 -33.0998 -1.51633 -1.33008 38.0742 -25.5523 -166.889 
7.02617 12.0878 35.0182 95.7682 -77.6037 5.71732 3.2538 5.83256 1.93548 -6.77891 1.78683 -2.19939 -4.52717 16.8502 10.1471 15.7194 32.6157 -18.3069 12.1567 -39.7656 -169.663 30.8577 2.15189 17.7859 1.20817 13.5379 174.302 -160.387 -44.6668 -169.102 29.9825 1.95727 17.3 0.722208 8.20143 174.403 -9.4858 -23.6258 172.515 -25.7343 -1.08922 -1.08146 23.5114 -15.1104 -175.792 173.978 -12.6698 174.582 -32.9206 -1.50394 -1.31975 37.8118 -25.4972 -167.049 
7.02189 12.0856 35.0152 96.3423 -77.3332 6.42636 3.10432 5.64155 1.77686 -6.77402 1.73779 -2.17432 -4.53607 16.8166 10.217 15.6516 32.545 -18.4679 12.0839 -39.6445 -169.768 30.6753 2.11067 17.6848 1.2538 13.982 174.29 -160.333 -44.7309 -168.955 29.9272 1.94522 17.2692 0.706181 8.02308 174.406 -9.77726 -23.8087 172.297 -25.6452 -1.08773 -1.0801 23.1975 -15.2066 -175.841 173.913 -12.5875 174.772 -32.891 -1.51065 -1.31941 38.0132 -25.4891 -166.952 
7.02155 12.0882 35.0124 95.2096 -77.4144 5.30418 3.40761 5.75921 1.7888 -6.89824 1.76867 -2.18942 -4.45694 16.8142 10.0071 15.2033 32.6318 -17.879 11.9982 -39.4728 -169.927 30.5258 2.07714 17.6019 1.30545 14.4824 174.277 -160.285 -44.5333 -169.08 29.9913 1.95917 17.305 0.707867 8.02522 174.406 -9.41973 -23.3895 172.39 -25.691 -1.08209 -1.07961 23.1959 -14.9421 -175.953 174.246 -12.6563 174.758 -32.8282 -1.50429 -1.31064 37.7087 -25.6838 -167.021 
7.02069 12.0864 35.0096 95.4432 -77.4351 5.59877 3.33197 5.7173 1.70145 -6.91808 1.75429 -2.13278 -4.44365 16.7988 10.1225 15.3754 32.5633 -18.0672 12.1992 -39.5267 -169.842 30.7284 2.12267 17.7143 1.2543 13.9874 174.29 -159.952 -44.7146 -168.924 30.2841 2.02377 17.4676 0.678885 7.7147 174.41 -9.4129 -23.1895 172.377 -25.5307 -1.08347 -1.08279 23.1905 -14.7258 -176.037 174.148 -12.6981 174.838 -32.9793 -1.51077 -1.32348 37.9779 -25.4857 -166.976 
7.02197 12.085 35.0076 95.4125 -77.6553 5.51662 3.33239 5.77096 1.75833 -6.85454 1.7654 -2.08323 -4.5835 16.7987 10.1409 15.6163 32.5689 -18.0153 12.3483 -39.6858 -169.741 30.7053 2.11746 17.7015 1.29596 14.3913 174.279 -159.676 -44.896 -168.708 30.537 2.07962 17.6082 0.665306 7.56152 174.412 -9.43196 -23.7943 172.247 -25.7085 -1.0963 -1.0902 23.6109 -15.197 -175.716 174.124 -12.7888 174.801 -32.9288 -1.5034 -1.31995 37.7485 -25.5741 -167.058 
7.02154 12.0842 35.0064 95.3135 -77.7719 5.09685 3.37605 5.87054 2.17562 -6.88299 1.8 -2.23084 -4.31957 16.7552 10.1409 15.2097 32.4711 -18.0747 12.2304 -39.485 -169.802 30.7567 2.12904 17.7299 1.27932 14.2305 174.283 -159.693 -44.9197 -168.755 30.5577 2.08427 17.6195 0.631066 7.20058 174.416 -9.46796 -23.3268 172.646 -26.1784 -1.10068 -1.1012 23.5707 -15.1155 -175.791 174.228 -12.858 174.454 -32.5405 -1.48719 -1.30596 37.5014 -25.5416 -167.183 
7.01521 12.0851 35.0093 94.9576 -77.8004 4.78087 3.43103 5.7788 2.15852 -6.82164 1.77134 -2.2002 -4.36201 16.7262 10.1919 15.2647 32.4158 -18.0943 12.3875 -40.1521 -169.565 30.8116 2.14142 17.7604 1.25676 14.0123 174.288 -159.883 -44.8319 -168.895 30.3932 2.04761 17.5283 0.624788 7.12378 174.417 -9.34088 -23.5087 172.569 -26.1256 -1.10115 -1.10007 23.6775 -15.1338 -175.748 174.334 -12.7933 174.511 -32.5871 -1.4878 -1.30748 37.4432 -25.6579 -167.157 
